<svg id="Capa_1" enable-background="new 0 0 512 512" height="512" viewBox="0 0 512 512" width="512" xmlns="http://www.w3.org/2000/svg"><g><g><path d="m446.662 426.814c40.621-45.31 65.338-105.172 65.338-170.814 0-141.385-114.615-256-256-256s-256 114.615-256 256c0 65.642 24.717 125.504 65.338 170.814z" fill="#ffdd40"/></g><g><path d="m351.723 176.278v-49.768c0-52.867-42.857-95.723-95.723-95.723-52.867 0-95.723 42.857-95.723 95.723v49.767h191.446z" fill="#f1935d"/></g><g><path d="m227.575 35.27.017-.196c-38.995 12.102-67.316 48.462-67.316 91.437v49.767h176.751v-11.035c.001-111.97-111.942-103.009-109.452-129.973z" fill="#e1715a"/></g><g><path d="m378.319 272.846c-16.851-5.898-21.447-17.591-14.162-40.57s-26.508-47.057-26.508-47.057h-81.649-81.649s-33.793 24.078-26.508 47.057 2.689 34.672-14.162 40.57-56.681 43.686-14.809 98.834h137.128 137.128c41.872-55.148 2.042-92.935-14.809-98.834z" fill="#f1935d"/></g><g><path d="m328.319 272.846c-16.851-5.898-21.447-17.591-14.162-40.57s-26.508-47.057-26.508-47.057h-21.649-41.649s-33.793 24.078-26.508 47.057 2.689 34.672-14.162 40.57-56.681 43.686-14.809 98.834h97.128 77.128c41.872-55.148 2.042-92.935-14.809-98.834z" fill="#e1715a"/></g><g><path d="m417 364c-22-19.425-117.305-35.119-117.305-35.119v-112.07h-87.39v112.07s-95.305 15.694-117.305 35.119c-2.447 2.161-5.03 5.672-7.689 10.207l48.689 52.607h240l48.69-52.606c-2.659-4.535-5.243-8.047-7.69-10.208z" fill="#f9ba8f"/></g><g><path d="m137.024 345.719c-18.117 5.322-34.434 11.579-42.024 18.281-2.447 2.161-5.03 5.672-7.689 10.207l48.689 52.607h72.375c-29.151-21.604-53.552-49.254-71.351-81.095z" fill="#fcad6d"/></g><g><path d="m87.314 374.209c-7.172 12.231-14.893 31.901-21.977 52.605 46.871 52.282 114.92 85.186 190.663 85.186s143.792-32.904 190.662-85.186c-7.083-20.704-14.805-40.374-21.977-52.605-44.517 16.643-103.711 26.791-168.685 26.791s-124.168-10.148-168.686-26.791z" fill="#e9efff"/></g><g><path d="m387.641 475.571c-8.881.934-17.892 1.429-27.021 1.429-74.077 0-140.79-31.474-187.531-81.769-32.072-4.614-61.169-11.823-85.775-21.022-7.172 12.231-14.893 31.901-21.977 52.605 46.871 52.282 114.92 85.186 190.663 85.186 48.147 0 93.175-13.312 131.641-36.429z" fill="#dae2fe"/></g><g><path d="m212.305 216.812v112.07c46.932 0 73.247-36.019 73.247-36.019l14.143-76.05h-87.39z" fill="#fcad6d"/></g><g><path d="m399.18 436.247-11.516 39.331c7.351-4.417 14.467-9.186 21.314-14.296v-23.629c0-5.78-8.174-6.953-9.798-1.406z" fill="#dae2fe"/></g><g><path d="m103.022 437.651v23.629c6.847 5.111 13.963 9.879 21.314 14.296l-11.516-39.331c-1.624-5.545-9.798-4.372-9.798 1.406z" fill="#bec8f7"/></g><g><path d="m179.508 172.566s-5.646-14.209-25.205-19.941c-3.354-.983-6.657 1.708-6.382 5.193 1.352 17.078 7.948 61.076 40.069 64.145z" fill="#fcad6d"/></g><g><path d="m332.492 172.566s5.646-14.209 25.205-19.941c3.354-.983 6.657 1.708 6.382 5.193-1.352 17.078-7.948 61.076-40.069 64.145z" fill="#f9ba8f"/></g><g><path d="m299.695 104.106c-20.721-5.146-29.418 20.426-43.695 20.426s-22.974-25.572-43.695-20.426c-20.677 5.135-2.058 48.549-37.333 61.137-.145 2.624-.222 5.284-.222 7.979 0 59.83 36.377 129.999 81.25 129.999s81.25-70.169 81.25-129.999c0-2.695-.077-5.354-.222-7.979-35.275-12.588-16.656-56.001-37.333-61.137z" fill="#f9d0b4"/></g><g><path d="m202.613 173.222c0-27.415 7.641-51.295 20.234-69.13-3.166-.833-6.641-.954-10.542.015-20.677 5.135-2.058 48.549-37.333 61.137-.145 2.624-.222 5.284-.222 7.979 0 59.83 36.377 129.999 81.25 129.999 4.75 0 9.404-.794 13.931-2.271-38.235-12.479-67.318-74.233-67.318-127.729z" fill="#f9ba8f"/></g><g><path d="m200.277 124.902c-.54 3.262-1.062 6.694-1.772 10.144 16.047 6.085 35.799 11.064 57.495 11.064s41.448-4.979 57.495-11.064c-.71-3.45-1.232-6.883-1.772-10.144-15.482 6.078-34.756 11.208-55.723 11.208s-40.241-5.13-55.723-11.208z" fill="#e9efff"/></g><g><g><path d="m351.724 114.221c-47.018 0-89.561-14.252-116.971-26.208-29.682-12.947-48.062-25.742-48.829-26.28-2.261-1.585-2.809-4.701-1.225-6.962s4.703-2.81 6.963-1.227c.725.507 73.408 50.678 160.062 50.678 2.762 0 5 2.239 5 5s-2.239 4.999-5 4.999z" fill="#e9efff"/></g></g><g><g><path d="m160.276 114.221c-2.762 0-5-2.239-5-5s2.238-5 5-5c86.653 0 159.337-50.171 160.062-50.678 2.26-1.583 5.379-1.034 6.963 1.227s1.036 5.377-1.225 6.962c-.768.538-19.147 13.333-48.829 26.28-27.41 11.957-69.953 26.209-116.971 26.209z" fill="#fff"/></g></g><g><g><path d="m256 381.709c-30.089 0-44.407-16.678-51.12-30.67-6.995-14.578-7.075-29.05-7.075-29.659 0-4.142 3.357-7.5 7.5-7.5 4.135 0 7.488 3.347 7.5 7.479.001.126.136 12.074 5.795 23.595 7.091 14.436 19.675 21.755 37.4 21.755 42.704 0 43.195-43.478 43.195-45.329 0-4.142 3.357-7.5 7.5-7.5s7.5 3.358 7.5 7.5c0 .609-.08 15.081-7.075 29.659-6.713 13.992-21.031 30.67-51.12 30.67zm-43.195-60.328h.01z" fill="#fff"/></g></g></g></svg>