<svg id="Capa_1" enable-background="new 0 0 512 512" height="512" viewBox="0 0 512 512" width="512" xmlns="http://www.w3.org/2000/svg"><g><g><path d="m446.662 426.814c40.621-45.31 65.338-105.172 65.338-170.814 0-141.385-114.615-256-256-256s-256 114.615-256 256c0 65.642 24.717 125.504 65.338 170.814z" fill="#422953"/></g><g><path d="m362.988 220.121s10.97-26.71 30.526-20.509-.473 64.082-38.634 67.729z" fill="#f9ba8f"/></g><g><path d="m149.012 220.121s-10.97-26.71-30.526-20.509.473 64.082 38.634 67.729z" fill="#fcad6d"/></g><g><path d="m446.662 426.814c-9.708-28.375-20.614-54.825-29.662-62.814-22-19.425-117.305-35.119-117.305-35.119h-43.695-43.695s-95.305 15.694-117.305 35.119c-9.048 7.989-19.954 34.439-29.662 62.814 46.87 52.282 114.919 85.186 190.662 85.186s143.792-32.904 190.662-85.186z" fill="#66e9ff"/></g><g><path d="m387.648 475.567c-97.635-.011-131.648-50.607-131.648-50.607v-96.079h-43.695s-95.305 15.694-117.305 35.119c-9.048 7.989-19.954 34.439-29.662 62.814 46.87 52.282 114.919 85.186 190.662 85.186 48.15 0 93.18-13.313 131.648-36.433z" fill="#23c5ed"/></g><g><circle cx="256" cy="480.24" fill="#0db7d3" r="15"/></g><g><path d="m399.18 436.247-11.516 39.331c7.351-4.417 14.467-9.186 21.314-14.296v-23.629c0-5.78-8.174-6.953-9.798-1.406z" fill="#23c5ed"/></g><g><path d="m103.022 437.651v23.629c6.847 5.111 13.963 9.879 21.314 14.296l-11.516-39.331c-1.624-5.545-9.798-4.372-9.798 1.406z" fill="#0db7d3"/></g><g><path d="m256 10c60.68 0 173.118 136.777 158.979 151.012s-158.979-48.477-158.979-48.477z" fill="#c15655"/></g><g><g><path d="m397.386 271.58c-9.391-12.863-29.787-44.699-29.787-78.571h-112.66-112.66c0 33.873-20.397 65.709-29.787 78.571-2.332 3.194-.22 7.687 3.726 7.943 4.884.318 11.492-.524 18.686-5.02 0 0-11.718 33.388-7.305 60.949.691 4.313 6.2 5.724 8.886 2.28l9.687-12.42s-2.213 42.899 28.898 75.102c2.769 2.867 7.632 1.415 8.451-2.486l4.453-21.2s15.353 49.53 63.295 68.501c2.353.931 4.987.931 7.34 0 47.942-18.972 63.295-68.501 63.295-68.501l4.453 21.2c.819 3.901 5.682 5.353 8.451 2.486 31.111-32.204 28.898-75.102 28.898-75.102l9.687 12.42c2.686 3.444 8.195 2.033 8.886-2.28 4.413-27.561-7.305-60.949-7.305-60.949 7.193 4.496 13.802 5.338 18.686 5.02 3.946-.256 6.057-4.749 3.726-7.943z" fill="#ff4155"/></g><g><path d="m134.904 274.503s-11.718 33.388-7.305 60.949c.691 4.313 6.2 5.724 8.886 2.28l9.688-12.42s-2.213 42.899 28.898 75.102c2.769 2.867 7.632 1.415 8.451-2.486l4.453-21.2s15.353 49.527 63.291 68.5c2.358.933 4.998.93 7.357-.003 20.887-8.269 35.585-22.338 45.524-35.583-12.004-14.634-17.759-32.914-17.759-32.914l-4.614 21.97c-.783 3.729-5.308 5.272-8.169 2.754-27.63-24.316-31.789-58.636-31.789-58.636v-149.807h-99.536c0 33.876-20.401 65.716-29.79 78.576-2.33 3.192-.22 7.681 3.724 7.938 4.883.319 11.494-.522 18.69-5.02z" fill="#e80054"/></g></g><g><path d="m352.407 220.627c0-53.244-43.163-96.406-96.407-96.406s-96.406 43.163-96.406 96.406c0 69.113 13.509 145.455 96.406 145.455 82.898 0 96.407-76.342 96.407-145.455z" fill="#f9d0b4"/></g><g><path d="m207.088 220.627c0-45.048 30.899-82.877 72.659-93.456-7.597-1.925-15.552-2.951-23.747-2.951-53.244 0-96.406 43.163-96.406 96.406 0 69.113 13.509 145.455 96.406 145.455 8.654 0 16.542-.843 23.747-2.412-61.813-13.459-72.659-81.144-72.659-143.042z" fill="#f9ba8f"/></g><g><path d="m256 10c-36.813 0-102.158 141.459-116.245 172.943-1.735 3.878-.843 8.427 2.249 11.34 12.325 11.614 48.149 38.725 113.997 38.725s101.671-27.111 113.997-38.725c3.092-2.913 3.984-7.463 2.249-11.34-14.089-31.484-79.434-172.943-116.247-172.943z" fill="#f1935d"/></g><g><path d="m221.518 35.99c-33.876 42.38-71.479 123.969-81.764 146.954-1.735 3.878-.843 8.427 2.249 11.34 12.325 11.614 48.149 38.725 113.997 38.725s101.671-27.111 113.997-38.725c3.092-2.913 3.984-7.463 2.249-11.34-4.734-10.579-15.259-33.579-28.539-59.452l-.508-.398c-.001-.001-145.22-52.918-121.681-87.104z" fill="#e1715a"/></g><g><path d="m363.636 129.664c-3.756-7.545-12.996-10.527-20.438-6.571-19.293 10.257-47.891 19.916-87.198 19.916s-67.905-9.659-87.199-19.916c-7.442-3.956-16.682-.974-20.438 6.571-.06.121-.12.242-.181.363-6.484 13.034-2.221 28.877 9.983 36.813 18.734 12.183 50.539 26.169 97.835 26.169 47.295 0 79.1-13.985 97.834-26.168 12.204-7.937 16.467-23.78 9.983-36.814-.06-.121-.12-.242-.181-.363z" fill="#665364"/></g><g><path d="m276 202.166h-40c-5.523 0-10-4.477-10-10v-50c0-5.523 4.477-10 10-10h40c5.523 0 10 4.477 10 10v50c0 5.523-4.477 10-10 10z" fill="#ffdd40"/></g><g><path d="m248.5 194.667c0-4.142 3.358-7.5 7.5-7.5v-40c-4.142 0-7.5-3.358-7.5-7.5s3.358-7.5 7.5-7.5h-20c-5.523 0-10 4.477-10 10v50c0 5.523 4.477 10 10 10h20c-4.142 0-7.5-3.358-7.5-7.5z" fill="#ffc839"/></g><g><path d="m241 147.166h30v40h-30z" fill="#665364"/></g></g></svg>