<svg id="Capa_1" enable-background="new 0 0 512 512" height="512" viewBox="0 0 512 512" width="512" xmlns="http://www.w3.org/2000/svg"><g><g><path d="m446.662 426.814c40.621-45.31 65.338-105.172 65.338-170.814 0-141.385-114.615-256-256-256s-256 114.615-256 256c0 65.642 24.717 125.504 65.338 170.814z" fill="#81c66d"/></g><g><g><path d="m421.365 29.771-14.227 28.455c-5.294 10.586-16.115 17.274-27.952 17.274h-246.372c-11.837 0-22.657-6.688-27.951-17.275l-14.228-28.454c-1.309-2.617-3.984-4.271-6.91-4.271-4.266 0-7.725 3.459-7.725 7.725v29.775c0 34.518 27.982 62.5 62.5 62.5h235c34.518 0 62.5-27.982 62.5-62.5v-29.775c0-4.267-3.459-7.725-7.725-7.725-2.927 0-5.602 1.653-6.91 4.271z" fill="#e9efff"/></g></g><g><g><path d="m373.5 100.5h-235c-34.518 0-62.5-27.982-62.5-62.5v25c0 34.518 27.982 62.5 62.5 62.5h235c34.518 0 62.5-27.982 62.5-62.5v-25c0 34.518-27.982 62.5-62.5 62.5z" fill="#bec8f7"/></g></g><g><path d="m124.373 475.58c38.463 23.112 83.486 36.42 131.627 36.42s93.164-13.308 131.627-36.42v-76.324h-263.254z" fill="#bec8f7"/></g><g><path d="m369.25 424.314v-80.231c-33.043-9.188-69.554-15.202-69.554-15.202h-43.696-43.695s-36.512 6.014-69.554 15.202v80.231c27.536 31.597 68.045 51.593 113.249 51.593s85.713-19.995 113.25-51.593z" fill="#543e5b"/></g><g><path d="m417 364c-11.752-10.376-44.419-19.687-72.305-26.11v68.964c0 16.516 6.561 32.355 18.239 44.033l24.693 24.693c22.052-13.251 41.955-29.714 59.035-48.766-9.708-28.375-20.614-54.825-29.662-62.814z" fill="#e9efff"/></g><g><path d="m396.516 450.887c-11.678-11.678-18.239-27.518-18.239-44.033v-60.146c-10.891-3.312-22.605-6.289-33.582-8.818v68.964c0 16.516 6.561 32.355 18.239 44.033l24.693 24.693c6.935-4.167 13.657-8.653 20.146-13.436z" fill="#dae2fe"/></g><g><path d="m95 364c11.752-10.376 44.419-19.687 72.305-26.11v68.964c0 16.516-6.561 32.355-18.239 44.033l-24.693 24.693c-22.052-13.251-41.955-29.714-59.035-48.766 9.708-28.375 20.614-54.825 29.662-62.814z" fill="#e9efff"/></g><g><path d="m114.663 384.079c9.052-7.992 30.515-15.351 52.642-21.247v-24.942c-27.886 6.423-60.553 15.734-72.305 26.11-9.048 7.989-19.954 34.439-29.662 62.814 6.232 6.951 12.844 13.554 19.795 19.786 9.639-28.074 20.569-54.609 29.53-62.521z" fill="#dae2fe"/></g><g><path d="m362.988 220.121s10.97-26.71 30.526-20.509-.473 64.082-38.634 67.729z" fill="#f9ba8f"/></g><g><path d="m149.012 220.121s-10.97-26.71-30.526-20.509.473 64.082 38.634 67.729z" fill="#fcad6d"/></g><g><path d="m397.386 271.58c-9.391-12.863-29.787-44.699-29.787-78.571h-112.66-112.66c0 33.873-20.397 65.709-29.787 78.571-2.332 3.194-.22 7.687 3.726 7.943 4.884.318 11.492-.524 18.686-5.02 0 0-11.718 33.388-7.305 60.949.691 4.313 6.2 5.724 8.886 2.28l9.687-12.42s-2.213 42.899 28.898 75.102c2.769 2.867 7.632 1.415 8.451-2.486l4.453-21.2s15.353 49.53 63.295 68.501c2.353.931 4.987.931 7.34 0 47.942-18.972 63.295-68.501 63.295-68.501l4.453 21.2c.819 3.901 5.682 5.353 8.451 2.486 31.111-32.204 28.898-75.102 28.898-75.102l9.687 12.42c2.686 3.444 8.195 2.033 8.886-2.28 4.413-27.561-7.305-60.949-7.305-60.949 7.193 4.496 13.802 5.338 18.686 5.02 3.946-.256 6.057-4.749 3.726-7.943z" fill="#ff4155"/></g><g><path d="m134.904 274.503s-11.718 33.388-7.305 60.949c.691 4.313 6.2 5.724 8.886 2.28l9.688-12.42s-2.213 42.899 28.898 75.102c2.769 2.867 7.632 1.415 8.451-2.486l4.453-21.2s15.353 49.527 63.291 68.5c2.358.933 4.998.93 7.357-.003 20.887-8.269 35.585-22.338 45.524-35.583-12.004-14.634-17.759-32.914-17.759-32.914l-4.614 21.97c-.783 3.729-5.308 5.272-8.169 2.754-27.63-24.316-31.789-58.636-31.789-58.636v-149.807h-99.536c0 33.876-20.401 65.716-29.79 78.576-2.33 3.192-.22 7.681 3.724 7.938 4.883.319 11.494-.522 18.69-5.02z" fill="#e80054"/></g><g><path d="m208.997 334.404c-.217-2.882-.244-5.719-.15-8.401.173-4.934 6.646-6.58 9.26-2.392 10.172 16.294 23.707 19.205 23.707 19.205 1.522-10.308 6.528-18.655 10.162-23.56 2.005-2.706 6.04-2.706 8.046 0 3.635 4.905 8.641 13.252 10.162 23.56 0 0 13.535-2.912 23.707-19.205 2.615-4.188 9.087-2.542 9.26 2.392.094 2.682.068 5.519-.15 8.401 0 0 47.307-39.913 49.337-109.179 1.608-54.873-41.775-101.189-96.671-101.004-53.091.179-96.075 43.273-96.075 96.406.002 72.095 49.405 113.777 49.405 113.777z" fill="#f9d0b4"/></g><g><path d="m207.088 212.192v-74.652c-28.423 16.768-47.494 47.698-47.494 83.087 0 72.095 49.404 113.777 49.404 113.777-.218-2.882-.244-5.719-.15-8.401.173-4.934 6.646-6.58 9.26-2.392-13.279-41.531-11.02-111.419-11.02-111.419z" fill="#f9ba8f"/></g><g><path d="m280.69 249.075c-9.766-1.028-16.713 2.888-20.701 6.175-2.31 1.904-5.668 1.904-7.978 0-3.988-3.287-10.935-7.203-20.701-6.175-10.139 1.067-30.934 19.784-45.136 33.706-4.524 4.434-.529 12.031 5.684 10.795 20.197-4.018 50.075-9.443 64.143-9.443s43.946 5.426 64.143 9.443c6.213 1.236 10.207-6.361 5.684-10.795-14.204-13.922-34.999-32.639-45.138-33.706z" fill="#ff4155"/></g><g><path d="m256 62.639c-67.379 0-122 54.621-122 122v12.553h244v-12.553c0-67.379-54.621-122-122-122z" fill="#665364"/></g><g><path d="m256 62.639c-67.379 0-122 54.621-122 122v12.553h40v-12.553c0-53.366 34.27-98.716 82-115.274z" fill="#543e5b"/></g><g><path d="m381 185.192h-250c-8.284 0-15-6.716-15-15 0-8.284 6.716-15 15-15h250c8.284 0 15 6.716 15 15 0 8.284-6.716 15-15 15z" fill="#dae2fe"/></g><g><path d="m205.66 170.192c0-8.284 6.716-15 15-15h-89.66c-8.284 0-15 6.716-15 15s6.716 15 15 15h89.66c-8.285 0-15-6.716-15-15z" fill="#bec8f7"/></g><g><path d="m271 197.192h-30v-135c0-8.284 6.716-15 15-15 8.284 0 15 6.716 15 15z" fill="#e9efff"/></g><g><path d="m256 140.5c-8.284 0-15-6.716-15-15v71.692h30v-71.692c0 8.284-6.716 15-15 15z" fill="#dae2fe"/></g><g><path d="m421 212.192h-330c-8.284 0-15-6.716-15-15 0-8.284 6.716-15 15-15h330c8.284 0 15 6.716 15 15 0 8.284-6.716 15-15 15z" fill="#e9efff"/></g><g><path d="m192.088 197.192c0-8.284 6.716-15 15-15h-116.088c-8.284 0-15 6.716-15 15s6.716 15 15 15h116.088c-8.284 0-15-6.716-15-15z" fill="#dae2fe"/></g></g></svg>