<?xml version="1.0"?>
<svg xmlns="http://www.w3.org/2000/svg" xmlns:xlink="http://www.w3.org/1999/xlink" version="1.1" id="Capa_1" x="0px" y="0px" viewBox="0 0 512 512" style="enable-background:new 0 0 512 512;" xml:space="preserve" width="512px" height="512px" class=""><g><g>
	<g>
		<path d="M256,0C114.615,0,0,114.615,0,256s114.615,256,256,256s256-114.615,256-256C511.835,114.683,397.317,0.165,256,0z     M256,490.667C126.397,490.667,21.333,385.603,21.333,256S126.397,21.333,256,21.333S490.667,126.397,490.667,256    C490.52,385.542,385.542,490.52,256,490.667z" data-original="#000000" class="active-path" data-old_color="#000000" fill="#FFB229"/>
	</g>
</g><g>
	<g>
		<path d="M180.363,330.667L167.157,192h5.141l19.851,119.083c0.855,5.143,5.303,8.915,10.517,8.917h170.667    c5.214-0.002,9.662-3.774,10.517-8.917L403.701,192H416v-21.333H165.131L160,116.32c-0.55-5.471-5.168-9.628-10.667-9.6h-42.667    v21.333h32.971L160,342.4c0.55,5.471,5.168,9.628,10.667,9.6h256v-21.333H180.363z M382.08,192l-17.781,106.667H211.701    L193.92,192H382.08z" data-original="#000000" class="active-path" data-old_color="#000000" fill="#FFB229"/>
	</g>
</g><g>
	<g>
		<path d="M213.333,352c-17.673,0-32,14.327-32,32s14.327,32,32,32c17.673,0,32-14.327,32-32S231.006,352,213.333,352z     M213.333,394.667c-5.891,0-10.667-4.776-10.667-10.667c0-5.891,4.776-10.667,10.667-10.667c5.891,0,10.667,4.776,10.667,10.667    C224,389.891,219.224,394.667,213.333,394.667z" data-original="#000000" class="active-path" data-old_color="#000000" fill="#FFB229"/>
	</g>
</g><g>
	<g>
		<path d="M373.333,352c-17.673,0-32,14.327-32,32s14.327,32,32,32s32-14.327,32-32S391.006,352,373.333,352z M373.333,394.667    c-5.891,0-10.667-4.776-10.667-10.667c0-5.891,4.776-10.667,10.667-10.667c5.891,0,10.667,4.776,10.667,10.667    C384,389.891,379.224,394.667,373.333,394.667z" data-original="#000000" class="active-path" data-old_color="#000000" fill="#FFB229"/>
	</g>
</g><g>
	<g>
		<rect x="234.667" y="224" width="21.333" height="21.333" data-original="#000000" class="active-path" data-old_color="#000000" fill="#FFB229"/>
	</g>
</g><g>
	<g>
		<rect x="277.333" y="224" width="21.333" height="21.333" data-original="#000000" class="active-path" data-old_color="#000000" fill="#FFB229"/>
	</g>
</g><g>
	<g>
		<rect x="320" y="224" width="21.333" height="21.333" data-original="#000000" class="active-path" data-old_color="#000000" fill="#FFB229"/>
	</g>
</g></g> </svg>
